<?xml version="1.0" encoding="UTF-8" standalone="no"?>
<svg
   xmlns:dc="http://purl.org/dc/elements/1.1/"
   xmlns:cc="http://creativecommons.org/ns#"
   xmlns:rdf="http://www.w3.org/1999/02/22-rdf-syntax-ns#"
   xmlns:svg="http://www.w3.org/2000/svg"
   xmlns="http://www.w3.org/2000/svg"
   xmlns:sodipodi="http://sodipodi.sourceforge.net/DTD/sodipodi-0.dtd"
   xmlns:inkscape="http://www.inkscape.org/namespaces/inkscape"
   viewBox="0 0 877.39435 232.62333"
   id="svg15"
   height="232.62334"
   width="877.39435"
   version="1.1"
   sodipodi:docname="Bukalapak_(2018).svg"
   inkscape:version="0.92.3 (2405546, 2018-03-11)">
  <sodipodi:namedview
     pagecolor="#ffffff"
     bordercolor="#666666"
     borderopacity="1"
     objecttolerance="10"
     gridtolerance="10"
     guidetolerance="10"
     inkscape:pageopacity="0"
     inkscape:pageshadow="2"
     inkscape:window-width="1366"
     inkscape:window-height="705"
     id="namedview12"
     showgrid="false"
     fit-margin-top="0"
     fit-margin-left="0"
     fit-margin-right="0"
     fit-margin-bottom="0"
     inkscape:zoom="0.56064347"
     inkscape:cx="445.47447"
     inkscape:cy="-123.71311"
     inkscape:window-x="-8"
     inkscape:window-y="-8"
     inkscape:window-maximized="1"
     inkscape:current-layer="svg15" />
  <metadata
     id="metadata21">
    <rdf:RDF>
      <cc:Work
         rdf:about="">
        <dc:format>image/svg+xml</dc:format>
        <dc:type
           rdf:resource="http://purl.org/dc/dcmitype/StillImage" />
        <dc:title></dc:title>
      </cc:Work>
    </rdf:RDF>
  </metadata>
  <defs
     id="defs19" />
  <path
     style="fill:#d71149;fill-opacity:1"
     d="M 46.742246,232.00626 C 37.678354,229.22969 29.834435,222.56909 26.155553,214.52526 22.584478,206.71713 -0.54922616,66.399248 0.00997084,55.938778 0.74780584,42.136658 9.5839148,30.902978 22.907979,26.827668 27.886851,25.304828 846.39374,-1.1516321 851.69283,0.03899789 c 9.8755,2.21888001 18.62143,8.99551001 23.10148,17.89977011 4.5841,9.11105 4.41021,10.71866 -11.37158,105.130382 -9.60878,57.4828 -15.14962,88.14176 -16.4681,91.12241 -2.84408,6.42951 -8.51558,12.2576 -15.05184,15.46744 l -5.66054,2.77977 -388.5,0.16666 c -213.675,0.0917 -389.625004,-0.17797 -391.000004,-0.59917 z"
     id="path872"
     inkscape:connector-curvature="0" />
  <path
     id="path848"
     style="fill:#ffffff;fill-opacity:1"
     d="m 231.99225,163.85207 17.75,-6.35669 v -40.5783 c 0,-30.227582 -0.3061,-40.884412 -1.2,-41.778312 -0.79691,-0.79691 -5.13968,-1.2 -12.92857,-1.2 -9.32901,0 -12.05007,0.3215 -13.3,1.57143 -1.36364,1.36364 -1.57143,5.83822 -1.57143,33.839482 v 32.26806 l -2.66305,1.21337 c -1.46468,0.66735 -5.4238,1.47117 -8.79805,1.78627 -5.56126,0.51932 -6.41105,0.33555 -9.08695,-1.96502 l -2.95195,-2.53791 -0.30376,-31.80016 c -0.19728,-20.652932 -0.67837,-32.251532 -1.37244,-33.087832 -1.6127,-1.94318 -25.14638,-1.80886 -26.77443,0.15282 -0.88873,1.07086 -1.11261,9.85996 -0.87244,34.250002 0.98284,14.53711 -2.71212,26.40234 3.50872,39.53426 3.6534,7.71215 10.14684,14.54755 16.94701,17.83945 6.73846,3.26203 9.9818,3.88471 18.36734,3.52631 6.1978,-0.2649 10.58188,-1.42424 25.25,-6.67723 z m 436.47629,-1.91395 c -2.10319,-1.65438 -2.72629,-3.0023 -2.72629,-5.89762 0,-5.66928 2.88052,-7.7909 11.75,-8.65436 l 7.25,-0.70579 v 7.5702 c 0,4.16361 -0.3375,7.77055 -0.75,8.01542 -0.4125,0.24487 -3.46067,0.75381 -6.77371,1.13095 -5.25919,0.59868 -6.36972,0.41352 -8.75,-1.4588 z m 83.23853,18.06639 c 0.56935,-1.06384 1.03518,-6.23883 1.03518,-11.5 0,-5.42678 0.41426,-9.56574 0.95741,-9.56574 0.52657,0 3.51858,3.2625 6.6489,7.25 3.13032,3.98751 7.51818,9.16251 9.7508,11.5 l 4.05931,4.25 h 15.79179 c 8.68548,0 15.79179,-0.22874 15.79179,-0.50832 0,-0.42369 -7.30296,-10.002 -27.083,-35.52112 l -2.73569,-3.52945 14.90046,-20.97055 c 8.19525,-11.53381 14.90445,-21.30806 14.90934,-21.720562 0.0129,-1.08825 -27.40721,-0.9225 -30.31555,0.18325 -1.48913,0.566172 -6.06314,6.072902 -11.6287,14.000002 -5.04573,7.18671 -9.59544,13.06675 -10.11046,13.06675 -0.56097,0 -0.9364,-11.97868 -0.9364,-29.877552 0,-19.54659 -0.16865,-27.12456 -0.82349,-29.82557 -1.81247,-1.21155 -7.11619,-1.387 -12.71019,-1.27939 -5.94098,0.11428 -12.20937,0.54782 -14.9709,0.39857 l -0.003,0.66923 -0.25107,50.164712 -0.259,51.75 h -2.76849 c -1.52268,0 -3.76863,-0.70051 -4.991,-1.55669 -2.18954,-1.53362 -2.22274,-1.90814 -2.23813,-25.25 -0.0175,-26.57702 -0.93194,-32.84632 -5.7671,-39.53972 -7.34374,-10.166052 -20.68254,-12.358062 -51.58049,-8.476382 -6.71459,0.84355 -9.50242,1.66535 -11.5,3.39 -2.60907,2.25256 -2.63357,2.40058 -2.33082,14.077292 0.16829,6.49044 0.48882,11.98363 0.71229,12.2071 0.22347,0.22348 5.26078,-0.41557 11.19403,-1.42009 5.93324,-1.00453 15.06271,-1.85006 20.28771,-1.87896 9.00636,-0.0498 9.51606,0.0602 9.80915,2.11811 0.27926,1.96077 -0.25256,2.22659 -5.5,2.7491 -24.08527,2.39833 -30.20199,4.27736 -36.21411,11.12478 -9.37301,10.67527 -7.44155,37.00536 3.19008,43.48778 3.08133,1.87877 5.32166,1.96036 53.9297,1.96394 49.11881,0.004 50.74739,-0.0571 51.75,-1.93052 z M 583.74225,111.12265 c 0,-18.175402 -0.49127,-17.194952 8.72102,-17.404792 9.06186,-0.20641 12.27898,3.99599 12.27898,16.039572 0,12.74503 -2.27731,15.41271 -14.25,16.6927 l -6.75,0.72163 z m -217.4171,26.70267 c -2.25116,-1.77076 -2.63785,-2.76796 -2.38485,-6.15003 0.40206,-5.37482 3.33165,-7.37603 12.05195,-8.23264 l 6.75,-0.66307 v 7.94367 7.94367 l -4.63957,0.63593 c -7.25033,0.99376 -8.89868,0.78698 -11.77753,-1.47753 z m 133.00176,3.78902 c -2.51414,-2.51414 -3.22823,-5.83488 -1.96348,-9.13076 0.96942,-2.52626 5.27463,-4.23035 12.62882,-4.99874 l 6.75,-0.70526 v 7.52058 c 0,4.40893 -0.45694,7.80298 -1.10439,8.20312 -0.60741,0.37541 -3.94431,0.91052 -7.41534,1.18914 -5.79445,0.46512 -6.52248,0.29505 -8.89561,-2.07808 z m -211.78466,39.12444 c 0.77799,-0.77799 1.2,-4.82223 1.2,-11.5 0,-7.59769 0.32795,-10.28803 1.25,-10.25437 0.6875,0.0251 3.5,3.06261 6.25,6.75 2.75,3.68741 6.97408,8.84186 9.38684,11.45436 l 4.38684,4.75 h 15.86316 c 8.72474,0 15.86316,-0.25263 15.86316,-0.56141 0,-0.47756 -24.86677,-33.05374 -28.57846,-37.43859 -1.06914,-1.26303 1.09697,-4.8175 13.71162,-22.5 l 14.98134,-21 9.69275,-1.700282 c 5.33101,-0.93514 14.25448,-2.01293 19.82993,-2.39506 9.6417,-0.66083 10.19219,-0.592 11.26271,1.40829 1.61448,3.016692 -0.48704,3.792932 -12.26598,4.530732 -18.04178,1.13009 -28.07835,5.825 -32.75364,15.32151 -2.05661,4.1774 -2.37653,6.26256 -2.35277,15.33481 0.0245,9.36449 0.31121,11.04073 2.65101,15.5 3.31336,6.31471 5.93551,8.74723 12.83334,11.90515 10.01694,4.5859 21.51805,4.40049 31.69418,-0.51097 l 4.20603,-2.03001 4.31863,2.53088 c 8.42766,4.93894 21.89934,6.79471 29.14396,4.01469 1.30887,-0.50226 1.58915,0.75756 1.83508,8.24873 l 0.29027,8.84153 h 36 36 l 0.2927,-6.61869 0.29269,-6.61868 6.75201,-0.48311 c 4.34441,-0.31084 8.92536,-1.45845 12.84711,-3.21841 l 6.0951,-2.73532 3.8602,2.54316 c 6.99371,4.60757 18.37931,6.62391 26.61019,4.71251 l 3.75,-0.87084 v 5.69469 c 0,3.13208 0.54,6.23469 1.2,6.8947 0.8011,0.8011 5.22222,1.19999 13.3,1.19999 8.07778,0 12.4989,-0.3989 13.3,-1.19999 0.8021,-0.8021 1.2,-5.24269 1.2,-13.39207 v -12.19208 l 11.25,-0.43721 c 6.6674,-0.25912 13.00345,-1.07778 15.55462,-2.00978 14.38659,-5.25572 21.62619,-17.22547 22.88957,-37.84497 1.09061,-17.799652 -2.68766,-33.706882 -9.85215,-41.479432 -6.24214,-6.77192 -12.22193,-8.86139 -25.34204,-8.85509 -12.46146,0.006 -21.80149,2.06148 -35.04503,7.71247 l -7.95497,3.39436 -0.26225,37.228672 -0.26225,37.22866 -3.23775,-0.69224 c -5.77043,-1.23373 -5.73626,-1.10411 -5.75552,-21.83373 -0.0311,-33.499152 -2.17432,-43.132182 -11.02229,-49.541622 -6.28788,-4.55491 -12.06957,-5.45757 -30.38658,-4.74406 -18.64226,0.72619 -25.05672,1.82413 -28.26484,4.838 -2.08695,1.96059 -2.30852,3.05184 -2.30852,11.36943 0,5.06038 0.26629,10.532122 0.59175,12.159432 l 0.59175,2.95875 10.65825,-1.86846 c 5.86204,-1.02765 14.87462,-1.96533 20.02796,-2.08374 8.03609,-0.18465 9.53059,0.0378 10.5,1.56318 1.71338,2.69593 -0.18904,3.35063 -11.94469,4.11065 -22.95893,1.48434 -32.32562,7.82366 -35.59207,24.08851 -1.60236,7.97871 0.14745,17.44713 4.94765,26.77237 0.21234,0.4125 -4.82643,0.75 -11.19727,0.75 l -11.58333,-1e-5 V 112.5102 c 0,-39.965372 -0.18898,-45.617552 -1.57143,-47.000002 -1.238,-1.238 -3.90424,-1.57143 -12.56574,-1.57143 -6.04687,0 -11.86473,0.46584 -12.92857,1.03518 -1.86291,0.99701 -1.93426,2.51233 -1.93426,41.079472 v 40.04426 l -3.25,-0.69074 c -6.823,-1.45016 -6.75,-1.14835 -6.75,-27.90522 0,-16.99369 -0.39832,-25.662662 -1.34724,-29.320832 -4.08483,-15.74741 -16.7414,-21.4259 -42.83488,-19.21825 -27.42264,2.3201 -28.16743,2.86525 -27.1321,19.85934 l 0.61634,10.1168 -13.90106,0.0147 c -9.05851,0.01 -14.72722,0.44506 -16.27265,1.250002 -1.30438,0.67939 -6.25438,6.82745 -11,13.66235 -4.74563,6.8349 -9.19091,12.6099 -9.87841,12.83333 -0.98123,0.3189 -1.25,-6.03593 -1.25,-29.554642 0,-20.6702 -0.18738,-27.99175 -0.93466,-30.30648 -1.21189,-2.02393 -26.54573,-0.98104 -27.57234,0.0673 l -0.25294,55.533402 c -0.14279,31.35001 -0.0444,57.5625 0.21862,58.25 0.65999,1.7251 25.62026,1.77074 27.341,0.05 z M 96.408916,109.27211 c -0.83345,-0.83344 -0.88364,-16.604362 -0.0597,-18.751542 0.50456,-1.31487 2.53793,-1.5818 12.049664,-1.5818 12.44756,0 15.55001,0.90469 19.25504,5.61488 2.48074,3.15374 2.62038,5.455512 0.57137,9.417852 -2.53668,4.90542 -5.96514,5.96727 -19.26673,5.96727 -6.53565,0 -12.183004,-0.3 -12.549664,-0.66667 z m 0.53333,47.46667 c -1.25292,-1.25293 -1.7169,-16.28941 -0.59301,-19.21821 0.50807,-1.32403 2.61595,-1.5818 12.934904,-1.5818 6.78035,0 13.5947,0.47999 15.143,1.06662 10.08138,3.81973 10.64883,14.60875 0.99878,18.99001 -3.32426,1.50927 -6.55628,1.90397 -15.73367,1.92142 -7.67689,0.0146 -11.952404,-0.38045 -12.750004,-1.17804 z m 37.163564,23.71109 c 14.04749,-2.9762 24.05821,-12.09015 28.05214,-25.53919 3.67087,-12.36115 0.74186,-25.51918 -7.71048,-34.63784 l -2.93458,-3.16593 2.86468,-5.83407 c 2.57578,-5.24571 2.8638,-6.84255 2.85595,-15.834072 -0.01,-11.42128 -1.469,-15.29221 -8.15654,-21.63981 -9.02089,-8.56235 -15.65244,-9.82039 -51.884734,-9.84282 -20.50344,-0.0127 -28.37285,0.30549 -29.25,1.18264 -1.58248,1.58248 -1.7408,111.920982 -0.16482,114.865732 0.98753,1.84522 2.38012,1.93347 30.25,1.9169 21.689834,-0.0129 30.982694,-0.39192 36.078384,-1.47154 z"
     inkscape:connector-curvature="0" />
</svg>
